<svg width="227px" height="30px" viewBox="0 0 227 30" version="1.1" xmlns="http://www.w3.org/2000/svg"><defs><polygon id="path-1" points="0.02 0.024 22.347 0.024 22.347 29.044 0.019 29.044"></polygon></defs><g fill="currentColor" fill-rule="evenodd"><g><g transform="translate(0.000000, 0.323000)"><g><mask id="mask-2" fill="#000"><use xlink:href="#path-1"></use></mask><path d="M17.987,8.275 C17.987,10.525 17.255,12.226 15.811,13.333 C14.354,14.449 12.107,15.0151311 9.134,15.0151311 C8.56199382,15.0170515 7.99015465,14.9950321 7.42,14.949 C6.942,14.909 6.488,14.85 6.068,14.774 L6.068,4.154 C6.068,3.057 6.352,2.326 6.911,1.982 C7.496,1.622 8.608,1.44 10.215,1.44 C12.705,1.44 14.645,2.039 15.982,3.22 C17.312,4.398 17.987,6.099 17.987,8.275 Z M18.799,2.225 C16.469,0.765 13.192,0.025 9.058,0.025 C8.714,0.025 8.184,0.036 7.392,0.063 C6.658,0.088 5.83,0.127 4.932,0.178 L0,0.446 L0,1.51 L0.153,1.517 C0.73,1.54 1.133,1.782 1.385,2.255 C1.649,2.753 1.783,3.63 1.783,4.863 L1.783,24.685 C1.783,25.867 1.649,26.726 1.384,27.236 C1.133,27.721 0.731,27.966 0.156,27.977 L0,27.98 L0,29.045 L7.852,29.045 L7.852,27.98 L7.695,27.977 C7.119,27.967 6.717,27.727 6.466,27.254 C6.202,26.757 6.068,25.893 6.068,24.684 L6.068,16.188 C6.693,16.278 7.33,16.349 7.964,16.401 C8.657,16.459 9.364,16.488 10.064,16.488 C13.96,16.488 17.009,15.779 19.125,14.382 C21.263,12.97 22.347,10.942 22.347,8.352 C22.347,5.762 21.153,3.7 18.799,2.225 Z" fill-rule="nonzero" mask="url(#mask-2)"></path></g></g><path d="M44.67,23.175 L43.565,22.805 L43.497,22.902 C42.847,23.824 42.235,24.592 41.681,25.185 C41.131,25.771 40.61,26.206 40.133,26.477 C39.3478837,26.917695 38.4954357,27.2258332 37.61,27.389 C36.67,27.572 35.177,27.665 33.173,27.665 C31.523,27.665 30.891,27.447 30.65,27.265 C30.42,27.09 30.145,26.576 30.145,25.122 L30.145,5.185 C30.145,3.953 30.279,3.075 30.543,2.578 C30.796,2.104 31.199,1.862 31.775,1.839 L31.928,1.833 L31.928,0.768 L24.001,0.768 L24.001,1.833 L24.154,1.839 C24.73,1.862 25.134,2.11 25.385,2.596 C25.65,3.108 25.785,3.979 25.785,5.186 L25.785,25.007 C25.785,26.189 25.653,27.045 25.394,27.55 C25.148,28.03 24.741,28.259 24.151,28.294 L24.001,28.303 L24.001,29.367 L43.164,29.367 L44.671,23.175 M66.177,26.485 C66.807,25.641 67.267,24.526 67.544,23.171 C67.817,21.831 67.955,19.805 67.955,17.147 L67.955,7.966 C67.955,5.913 68.139,4.421 68.502,3.532 C68.86,2.656 69.457,2.136 70.327,1.868 L70.441,1.833 L70.441,0.768 L63.556,0.768 L63.556,1.833 L63.691,1.855 C64.579,2 65.213,2.51 65.629,3.45 C66.054,4.407 66.269,5.863 66.269,7.774 L66.269,17.109 C66.269,20.124 66.089,22.279 65.735,23.515 C65.387,24.735 64.775,25.711 63.92,26.415 C63.2393906,26.9582067 62.4585648,27.362211 61.622,27.604 C60.757,27.86 59.706,27.99 58.499,27.99 C55.917,27.99 54.069,27.332 53.005,26.036 C51.935,24.73 51.392,22.43 51.392,19.199 L51.392,5.185 C51.392,3.953 51.526,3.075 51.79,2.578 C52.042,2.104 52.445,1.862 53.022,1.839 L53.175,1.833 L53.175,0.768 L45.248,0.768 L45.248,1.833 L45.401,1.839 C45.977,1.862 46.38,2.11 46.632,2.596 C46.897,3.106 47.032,3.978 47.032,5.186 L47.032,18.413 C47.032,20.792 47.167,22.563 47.434,23.675 C47.704,24.798 48.154,25.77 48.774,26.565 C49.66,27.669 50.853,28.527 52.32,29.115 C53.78,29.702 55.483,29.999 57.38,29.999 C59.427,29.999 61.193,29.709 62.627,29.135 C64.072,28.557 65.266,27.666 66.177,26.485 M95.948,25.373 C95.973,25.563 95.992,25.736 96.004,25.893 C96.017,26.048 96.023,26.193 96.023,26.331 C96.023,26.903 95.879,27.371 95.594,27.724 C95.311,28.074 94.941,28.257 94.464,28.292 L94.315,28.302 L94.315,29.367 L102.167,29.367 L102.167,28.303 L102.041,28.275 C101.572,28.171 101.161,27.811 100.821,27.155 C100.463,26.471 100.194,25.515 100.021,24.315 L97.307,5.042 C97.2323878,4.60765709 97.1952511,4.16770419 97.196,3.727 C97.196,3.18 97.328,2.737 97.588,2.41 C97.844,2.088 98.213,1.907 98.688,1.849 L98.828,1.832 L98.828,0.768 L92.72,0.768 L86.767,22.99 L80.403,0.768 L73.938,0.768 L73.938,1.833 L74.039,1.873 C74.649,2.115 75.084,2.39 75.329,2.78 C75.577,3.174 75.702,3.757 75.702,4.515 C75.702,4.939 75.69,5.368 75.664,5.799 L75.666,5.91 L73.162,22.818 C72.925,24.452 72.533,25.745 71.996,26.66 C71.472,27.556 70.806,28.08 70.019,28.273 L69.897,28.303 L69.897,29.367 L77.103,29.367 L77.103,28.303 L76.971,28.28 C76.228,28.147 75.682,27.811 75.304,27.212 C74.924,26.608 74.732,25.756 74.732,24.682 C74.732,24.407 74.747,24.089 74.779,23.738 C74.809,23.392 74.856,23.008 74.919,22.596 L77.377,5.456 L84.508,29.674 L86.704,29.674 L93.137,5.508 L95.948,25.373 M159.832,26.485 C160.462,25.641 160.922,24.526 161.199,23.171 C161.471,21.831 161.609,19.805 161.609,17.147 L161.609,7.966 C161.609,5.913 161.794,4.421 162.157,3.532 C162.514,2.656 163.112,2.136 163.982,1.868 L164.095,1.833 L164.095,0.768 L157.211,0.768 L157.211,1.833 L157.345,1.855 C158.233,2 158.867,2.51 159.283,3.45 C159.708,4.407 159.924,5.863 159.924,7.774 L159.924,17.109 C159.924,20.124 159.744,22.279 159.389,23.515 C159.041,24.735 158.43,25.711 157.575,26.415 C156.894391,26.9582067 156.113565,27.362211 155.277,27.604 C154.412,27.86 153.361,27.99 152.153,27.99 C149.571,27.99 147.723,27.332 146.66,26.036 C145.59,24.73 145.046,22.43 145.046,19.199 L145.046,5.185 C145.046,3.953 145.18,3.075 145.445,2.578 C145.696,2.104 146.099,1.862 146.676,1.839 L146.83,1.833 L146.83,0.768 L138.902,0.768 L138.902,1.833 L139.055,1.839 C139.631,1.862 140.034,2.11 140.286,2.596 C140.551,3.106 140.686,3.978 140.686,5.186 L140.686,18.413 C140.686,20.792 140.821,22.563 141.088,23.675 C141.358,24.798 141.808,25.77 142.428,26.565 C143.314,27.669 144.508,28.527 145.975,29.115 C147.435,29.702 149.137,29.999 151.034,29.999 C153.082,29.999 154.847,29.709 156.282,29.135 C157.726,28.557 158.92,27.666 159.832,26.485 M136.505,25.595 C136.034,25.571 135.677,25.375 135.414,24.992 C135.144,24.599 135.006,24.05 135.006,23.359 L135.006,14.868 C135.006,14.24 135.146,13.835 135.423,13.444 C135.69,13.064 136.023,12.879 136.44,12.879 L136.6,12.879 L136.6,11.811 L121.835,11.811 L121.835,12.879 C121.835,12.879 122.475,12.93 123.03,12.953 C124.883,13.026 128.72,13.084 129.813,13.611 C130.503,13.943 130.873,14.659 130.873,15.461 L130.873,24.069 C130.873,25.412 130.28,26.505 129.111,27.319 C127.924,28.146 126.323,28.565 124.354,28.565 C121.325,28.565 118.998,27.415 117.437,25.145 C115.863,22.86 115.065,19.459 115.065,15.039 C115.065,10.71 115.835,7.368 117.352,5.105 C118.857,2.862 121.065,1.725 123.918,1.725 C125.823,1.725 127.578,2.308 129.137,3.458 C130.699,4.61 131.952,6.252 132.86,8.338 L132.9,8.428 L133.795,8.48 L134.952,3.501 L134.856,3.44 C133.157,2.352 131.48,1.525 129.869,0.979 C128.252,0.433 126.659,0.156 125.132,0.156 C123.238,0.156 121.422,0.476 119.735,1.106 C118.047,1.736 116.57,2.644 115.347,3.803 C113.766576,5.28804402 112.518535,7.09092206 111.685,9.093 C110.858,11.084 110.439,13.266 110.439,15.576 C110.439,17.453 110.723,19.254 111.282,20.929 C111.843,22.609 112.644,24.069 113.665,25.265 C115.014,26.875 116.523,28.079 118.15,28.845 C119.776,29.611 121.64,30 123.69,30 C125.63,30 127.687,29.701 129.804,29.113 C131.916,28.525 134.198,27.612 136.588,26.399 L136.68,26.352 L136.65,25.602 L136.505,25.595 M166.313,1.833 L166.466,1.839 C167.042,1.862 167.445,2.11 167.696,2.596 C167.962,3.108 168.096,3.98 168.096,5.186 L168.096,25.007 C168.096,26.189 167.965,27.045 167.706,27.55 C167.46,28.03 167.053,28.259 166.463,28.294 L166.313,28.303 L166.313,29.367 L174.24,29.367 L174.24,28.303 L174.087,28.297 C173.497,28.275 173.091,28.035 172.846,27.567 C172.587,27.077 172.456,26.215 172.456,25.007 L172.456,5.185 C172.456,3.953 172.591,3.075 172.855,2.578 C173.107,2.104 173.51,1.862 174.087,1.839 L174.24,1.833 L174.24,0.768 L166.313,0.768 L166.313,1.833 M183.484,25.467 L183.484,5.185 C183.484,3.947 183.794,3.115 184.406,2.714 C185.042,2.299 186.427,2.088 188.522,2.088 C191.793,2.088 194.262,3.182 195.862,5.34 C197.47,7.512 198.286,10.865 198.286,15.307 C198.286,19.897 197.428,23.175 195.737,25.052 C194.051,26.925 191.087,27.875 186.929,27.875 C185.454,27.875 184.499,27.706 184.088,27.373 C183.688,27.049 183.484,26.408 183.484,25.467 L183.484,25.467 Z M195.559,2.127 C194.487,1.574 193.276,1.167 191.959,0.915 C190.643,0.665 188.951,0.538 186.929,0.538 C186.232,0.538 185.652,0.542 185.19,0.548 C184.728,0.555 184.263,0.565 183.794,0.577 L177.415,0.768 L177.415,1.833 L177.569,1.839 C178.145,1.862 178.549,2.104 178.801,2.579 C179.065,3.076 179.199,3.953 179.199,5.185 L179.199,25.007 C179.199,26.19 179.065,27.049 178.799,27.559 C178.549,28.044 178.146,28.289 177.572,28.299 L177.415,28.303 L177.415,29.367 L187.915,29.367 C192.589,29.367 196.295,28.127 198.933,25.683 C201.573,23.233 202.913,19.795 202.913,15.46 C202.913,12.52 202.248,9.826 200.937,7.455 C199.625,5.08 197.815,3.287 195.559,2.128 L195.559,2.127 Z M225.863,22.824 L225.782,22.939 C224.932,24.139 224.117,25.08 223.36,25.739 C222.608,26.392 221.815,26.863 221.008,27.135 C220.359,27.335 219.598,27.482 218.743,27.569 C217.884,27.658 216.415,27.703 214.376,27.703 C212.301,27.703 211.558,27.484 211.299,27.301 C211.053,27.126 210.76,26.605 210.76,25.122 L210.76,14.088 L215.192,14.088 C217.255,14.088 218.632,14.275 219.288,14.643 C219.933,15.005 220.425,15.672 220.752,16.625 L220.789,16.734 L221.745,16.734 L221.745,9.684 L220.827,9.684 L220.79,9.792 C220.464,10.754 219.883,11.435 219.062,11.816 C218.22,12.206 216.732,12.406 214.642,12.406 L210.76,12.406 L210.76,4.516 C210.76,3.343 210.965,2.93 211.137,2.791 C211.317,2.645 211.882,2.471 213.56,2.471 L214.755,2.471 C218.04,2.471 220.268,2.775 221.378,3.373 C222.475,3.963 223.318,5.05 223.883,6.603 L223.928,6.725 L225.021,6.571 L224.541,0.768 L204.692,0.768 L204.692,1.833 L204.845,1.839 C205.422,1.862 205.825,2.104 206.077,2.579 C206.341,3.077 206.475,3.954 206.475,5.185 L206.475,25.007 C206.475,26.189 206.341,27.051 206.076,27.563 C205.825,28.047 205.423,28.289 204.849,28.3 L204.692,28.303 L204.692,29.367 L225.216,29.367 L226.916,23.393 L225.863,22.824" fill-rule="nonzero"></path></g></g></svg>